# xmcd
#
# Track frame offsets:
#	151
#	14916
#	21102
#	47660
#	68124
#	86561
#	104463
#	125382
#	141567
#	160376
#
# Disc length: 2435 seconds
#
# Revision: 1
# Processed by: cddbd v1.4PL0 Copyright (c) Steve Scherf et al.
# Submitted via: EasyCDDAExtractor 5.0.7
#
DISCID=8d09810a
DTITLE=Tim Platt - Day After Day
DYEAR=1981
DGENRE=Country
TTITLE0=If The Walls Fell Down
TTITLE1=Maybe Sometimes
TTITLE2=Day After Day
TTITLE3=Darkness Into Light
TTITLE4=Not Up To You
TTITLE5=Quiet Place
TTITLE6=Lonely Child
TTITLE7=Rest In You
TTITLE8=Shot Of Love
TTITLE9=Hold On
EXTD=
EXTT0=
EXTT1=
EXTT2=
EXTT3=
EXTT4=
EXTT5=
EXTT6=
EXTT7=
EXTT8=
EXTT9=
PLAYORDER=
